HIERARCHY
ROOT Hips
{
	OFFSET 0.00000 0.00000 0.00000
	CHANNELS 6 Xposition Yposition Zposition Zrotation Yrotation Xrotation 
	JOINT LHipJoint
	{
		OFFSET 0 0 0
		CHANNELS 3 Zrotation Yrotation Xrotation
		JOINT LeftUpLeg
		{
			OFFSET 1.53794 -1.55850 0.93568
			CHANNELS 3 Zrotation Yrotation Xrotation
			JOINT LeftLeg
			{
				OFFSET 2.28545 -6.27922 0.00000
				CHANNELS 3 Zrotation Yrotation Xrotation
				JOINT LeftFoot
				{
					OFFSET 2.37329 -6.52057 0.00000
					CHANNELS 3 Zrotation Yrotation Xrotation
					JOINT LeftToeBase
					{
						OFFSET 0.14846 -0.40788 2.09160
						CHANNELS 3 Zrotation Yrotation Xrotation
						End Site
						{
							OFFSET 0.00000 -0.00000 1.07536
						}
					}
				}
			}
		}
	}
	JOINT RHipJoint
	{
		OFFSET 0 0 0
		CHANNELS 3 Zrotation Yrotation Xrotation
		JOINT RightUpLeg
		{
			OFFSET -1.78290 -1.55850 0.93568
			CHANNELS 3 Zrotation Yrotation Xrotation
			JOINT RightLeg
			{
				OFFSET -2.24144 -6.15831 0.00000
				CHANNELS 3 Zrotation Yrotation Xrotation
				JOINT RightFoot
				{
					OFFSET -2.35091 -6.45907 0.00000
					CHANNELS 3 Zrotation Yrotation Xrotation
					JOINT RightToeBase
					{
						OFFSET -0.14428 -0.39641 2.07944
						CHANNELS 3 Zrotation Yrotation Xrotation
						End Site
						{
							OFFSET -0.00000 -0.00000 1.06864
						}
					}
				}
			}
		}
	}
	JOINT LowerBack
	{
		OFFSET 0 0 0
		CHANNELS 3 Zrotation Yrotation Xrotation
		JOINT Spine
		{
			OFFSET -0.08841 2.11430 -0.15818
			CHANNELS 3 Zrotation Yrotation Xrotation
			JOINT Spine1
			{
				OFFSET -0.00033 2.12605 -0.08097
				CHANNELS 3 Zrotation Yrotation Xrotation
				JOINT Neck
				{
					OFFSET 0 0 0
					CHANNELS 3 Zrotation Yrotation Xrotation
					JOINT Neck1
					{
						OFFSET 0.04431 1.59447 0.43193
						CHANNELS 3 Zrotation Yrotation Xrotation
						JOINT Head
						{
							OFFSET 0.00455 1.62017 -0.58852
							CHANNELS 3 Zrotation Yrotation Xrotation
							End Site
							{
								OFFSET -0.00920 1.72955 -0.25850
							}
						}
					}
				}
				JOINT LeftShoulder
				{
					OFFSET 0 0 0
					CHANNELS 3 Zrotation Yrotation Xrotation
					JOINT LeftArm
					{
						OFFSET 2.86490 1.49927 -0.33774
						CHANNELS 3 Zrotation Yrotation Xrotation
						JOINT LeftForeArm
						{
							OFFSET 4.87408 -0.00000 0.00000
							CHANNELS 3 Zrotation Yrotation Xrotation
							JOINT LeftHand
							{
								OFFSET 2.76729 -0.00000 0.00000
								CHANNELS 3 Zrotation Yrotation Xrotation
								JOINT LeftFingerBase
								{
									OFFSET 0 0 0
									CHANNELS 3 Zrotation Yrotation Xrotation
									JOINT LeftHandIndex1
									{
										OFFSET 0.98922 -0.00000 0.00000
										CHANNELS 3 Zrotation Yrotation Xrotation
										End Site
										{
											OFFSET 0.79753 -0.00000 0.00000
										}
									}
								}
								JOINT LThumb
								{
									OFFSET 0 0 0
									CHANNELS 3 Zrotation Yrotation Xrotation
									End Site
									{
										OFFSET 0.80972 -0.00000 0.80972
									}
								}
							}
						}
					}
				}
				JOINT RightShoulder
				{
					OFFSET 0 0 0
					CHANNELS 3 Zrotation Yrotation Xrotation
					JOINT RightArm
					{
						OFFSET -2.94414 1.45463 -0.25291
						CHANNELS 3 Zrotation Yrotation Xrotation
						JOINT RightForeArm
						{
							OFFSET -4.71404 -0.00000 0.00000
							CHANNELS 3 Zrotation Yrotation Xrotation
							JOINT RightHand
							{
								OFFSET -2.83468 -0.00000 0.00000
								CHANNELS 3 Zrotation Yrotation Xrotation
								JOINT RightFingerBase
								{
									OFFSET 0 0 0
									CHANNELS 3 Zrotation Yrotation Xrotation
									JOINT RightHandIndex1
									{
										OFFSET -0.86820 -0.00000 0.00000
										CHANNELS 3 Zrotation Yrotation Xrotation
										End Site
										{
											OFFSET -0.69996 -0.00000 0.00000
										}
									}
								}
								JOINT RThumb
								{
									OFFSET 0 0 0
									CHANNELS 3 Zrotation Yrotation Xrotation
									End Site
									{
										OFFSET -0.71065 -0.00000 0.71065
									}
								}
							}
						}
					}
				}
			}
		}
	}
}
MOTION
Frames: 13
Frame Time: 0.0333333
0.00 0.00 0.00 178.5470 6.2787 -112.4040 0.0000 0.0000 0.0000 1.7942 -2.4182 -99.8967 36.4963 11.4689 146.1220 -0.3600 14.7756 -16.4463 0.7109 -5.3886 -15.0204 0.0000 0.0000 0.0000 19.3475 7.9001 -29.4617 -25.2133 -19.3355 105.4067 0.8325 -17.7352 1.8380 -0.7555 5.5512 -15.4877 -5.7466 0.3111 15.7160 -4.0393 1.5567 11.0152 -1.1952 1.2342 3.0071 5.2774 0.7718 -25.0845 2.2642 -1.2899 9.0956 -0.2560 -0.2874 6.7712 -0.0000 -0.0000 0.0000 -63.6009 -28.1283 29.0765 74.7376 -59.1013 -46.8223 -0.0000 -0.0000 38.5771 54.7799 14.4752 19.4979 -7.1250 0.0000 -0.0000 28.5858 51.7337 5.0872 -0.0000 -0.0000 0.0000 82.0311 36.2455 29.7589 -61.3636 56.6625 -35.4780 0.0000 0.0000 42.3107 -55.2600 -6.5753 9.3765 7.1250 -0.0000 -0.0000 -24.9017 -40.0627 -3.2669
0.00 0.00 0.00 177.9250 5.4104 -112.0890 0.0000 0.0000 0.0000 1.8024 -8.6409 -93.9301 35.7493 12.4867 142.5238 -0.5432 16.2624 -16.5687 0.9618 -6.2445 -17.4955 0.0000 0.0000 0.0000 17.2348 6.8202 -30.6011 -25.3379 -19.3027 105.7834 0.9530 -17.7515 -1.0542 -1.4796 7.6857 -21.7635 -4.9641 -0.0075 17.8969 -3.6289 0.8320 10.0603 -1.1609 0.8926 0.8235 5.3557 0.9584 -24.6666 2.5265 -1.0841 9.4510 -0.1563 -0.1503 6.8316 0.0000 0.0000 0.0000 -49.1236 -44.6215 11.1255 94.8483 -59.9110 -64.1975 -0.0000 -0.0000 36.0621 50.6429 18.7783 21.4298 -7.1250 0.0000 -0.0000 25.5217 56.2927 7.4064 0.0000 0.0000 0.0000 83.4371 34.3299 29.3267 -55.5070 54.9887 -30.6308 0.0000 0.0000 43.5982 -56.7695 -6.3459 9.5764 7.1250 -0.0000 -0.0000 -26.1666 -39.9447 -3.5450
0.00 0.00 0.00 181.1400 5.2173 -112.6640 0.0000 0.0000 0.0000 0.9801 -10.7691 -87.2125 34.5165 13.9085 137.1280 -1.0480 20.1460 -17.8116 0.9975 -6.3561 -17.8212 0.0000 0.0000 0.0000 14.9746 9.6166 -32.7783 -25.9122 -19.1404 107.5277 1.0133 -17.4842 -6.8226 -1.6214 8.0284 -22.8003 -5.1798 1.0770 20.3256 -1.8306 1.9062 9.5982 0.5865 1.3539 -0.9976 4.7721 0.8864 -24.9554 1.5357 -0.8224 9.7429 -0.3582 -0.1194 6.9665 -0.0000 -0.0000 0.0000 -21.3151 -56.6144 -17.0063 75.6935 -59.2123 -47.6430 -0.0000 -0.0000 33.9903 41.0748 17.7829 14.9060 -7.1250 0.0000 -0.0000 13.6783 52.5116 2.5677 -0.0000 -0.0000 0.0000 80.5587 35.4530 28.5704 -45.5621 51.0409 -22.6750 0.0000 0.0000 43.8541 -58.3001 -6.7304 10.7447 7.1250 -0.0000 -0.0000 -27.7974 -40.8458 -3.1254
0.00 0.00 0.00 187.2800 5.3483 -114.7540 0.0000 0.0000 0.0000 -6.2433 -17.5516 -68.4771 30.6640 17.0191 122.7551 -2.1058 25.3728 -16.4711 0.9252 -6.1279 -17.1560 0.0000 0.0000 0.0000 3.7511 8.8321 -49.0350 -29.3777 -17.7453 118.4511 -0.2257 -12.0648 -19.8837 -2.0899 9.0509 -25.9547 -4.0598 2.0742 23.6678 1.1235 3.3203 9.3676 2.6435 2.0475 -3.1117 3.7998 1.2909 -24.9401 -0.3288 0.6910 9.7906 -0.6163 0.5092 6.9957 0.0000 0.0000 0.0000 4.1911 -64.5341 -38.3253 35.3050 -45.0287 -15.0287 -0.0000 -0.0000 35.9227 31.3008 15.1857 9.0496 -7.1250 0.0000 -0.0000 3.5702 47.5707 0.2267 0.0000 0.0000 0.0000 76.4345 40.6001 24.0679 -25.1932 36.4008 -8.4043 0.0000 0.0000 47.6247 -58.2610 -7.9282 12.5708 7.1250 -0.0000 -0.0000 -28.4801 -42.7938 -1.7017
0.00 0.00 0.00 188.1560 4.4180 -119.4800 0.0000 0.0000 0.0000 -14.6348 -22.5285 -48.9491 25.8414 19.1614 107.3118 -2.9539 28.8000 -13.9475 0.9739 -6.2824 -17.6060 0.0000 0.0000 0.0000 -3.8196 3.0490 -71.7110 -33.6576 -14.7521 133.6593 -1.9356 -4.6713 -28.2904 -2.5416 9.9132 -28.6961 -1.9242 1.1205 25.1680 2.5379 3.1242 11.1467 3.0083 2.1086 -1.8643 0.2903 0.9750 -25.7460 0.3572 1.2641 10.7084 0.2478 0.6932 7.4113 0.0000 -0.0000 0.0000 -19.4205 -70.0139 -19.4149 30.6663 -41.4577 -11.8483 -0.0000 -0.0000 38.9051 38.0827 15.7049 11.9755 -7.1250 0.0000 -0.0000 10.3437 49.3569 1.1221 0.0000 -0.0000 0.0000 65.8799 35.4813 27.9594 -24.4410 35.6272 -7.9620 0.0000 0.0000 38.9057 -41.0055 -2.7016 2.3467 7.1250 -0.0000 -0.0000 -11.7244 -33.3865 -3.3988
0.00 0.00 0.00 179.8860 -0.1100 -126.2780 0.0000 0.0000 0.0000 -26.2704 -28.4516 -23.4806 20.3107 19.9977 90.9084 -3.7776 32.0643 -10.4581 1.1876 -6.9158 -19.4661 0.0000 0.0000 0.0000 -7.0171 -7.9231 -86.3071 -36.3254 -11.7144 145.2710 -3.0121 -1.1345 -33.2937 -3.1666 10.9600 -32.1450 0.4304 1.7891 21.5650 4.1117 -0.4214 13.1621 4.2059 -1.3631 2.3731 1.1502 -0.1260 -25.0277 -0.5094 -0.3934 11.5469 -0.4037 -0.1621 7.5796 0.0000 0.0000 0.0000 -59.0362 -72.2902 17.2737 23.5920 -34.7298 -7.4728 -0.0000 -0.0000 44.5346 46.5136 16.2180 16.4073 -7.1250 0.0000 -0.0000 19.5158 51.8312 3.3900 0.0000 0.0000 0.0000 64.4378 26.0902 16.9320 -65.5307 57.6121 -38.9789 0.0000 0.0000 34.2526 -49.0501 1.3443 -1.5487 7.1250 -0.0000 -0.0000 -17.1543 -27.7652 -7.5026
0.00 0.00 0.00 176.9490 -2.1732 -124.4730 0.0000 0.0000 0.0000 -25.4053 -25.2328 -15.9539 15.5877 19.5267 77.0008 -3.8212 32.4824 -7.9782 0.7139 -5.3996 -15.0518 0.0000 0.0000 0.0000 -7.4476 4.8277 -82.6183 -35.4996 -12.7981 141.3828 -2.4351 -5.1903 -31.6688 -3.3911 11.3028 -33.3079 1.1309 0.8953 17.7279 3.2687 -0.6749 11.4555 2.8900 -1.1215 2.4020 1.6923 -1.1259 -25.8328 0.9764 -2.2564 12.9801 -0.2519 -0.8502 8.1919 -0.0000 -0.0000 0.0000 -75.6342 -64.5947 33.2826 20.9560 -31.7770 -6.0268 -0.0000 -0.0000 47.3944 52.9743 16.5383 20.6765 -7.1250 0.0000 -0.0000 27.4711 54.0341 6.4751 -0.0000 -0.0000 0.0000 48.5159 51.3828 2.4990 -56.2259 55.2174 -31.2205 0.0000 0.0000 33.0762 -33.9704 -3.2601 2.1942 7.1250 -0.0000 -0.0000 -6.0338 -33.8628 -1.6560
0.00 0.00 0.00 164.8840 -2.7052 -121.7670 0.0000 0.0000 0.0000 -13.0853 -10.0403 -38.2568 19.7212 19.9981 89.1847 -0.2684 9.5948 -0.4028 0.4595 -4.3484 -12.0590 0.0000 0.0000 0.0000 1.6316 13.1110 -68.5555 -31.8732 -16.2117 126.9820 -1.5967 -12.6069 -31.3107 -3.6595 11.6930 -34.6543 -8.5191 1.8820 18.8546 0.0012 -0.4607 10.4768 4.8902 -1.1775 0.8075 5.1104 -3.1542 -28.4668 1.2181 -6.4762 11.6742 -1.3213 -2.7002 8.0375 0.0000 0.0000 0.0000 -75.9263 -66.4714 45.9870 12.3621 -20.3454 -2.2266 -0.0000 -0.0000 48.4119 53.0471 22.0893 26.5600 -7.1250 0.0000 -0.0000 30.9400 61.2819 12.9606 0.0000 0.0000 0.0000 62.7047 64.5699 -2.9988 -30.5636 41.3716 -11.7804 0.0000 0.0000 22.1424 -7.1573 -1.1646 0.1462 7.1250 -0.0000 -0.0000 15.3410 -30.9252 5.4506
0.00 0.00 0.00 161.5580 -4.3486 -121.4910 0.0000 0.0000 0.0000 -5.8993 -7.7918 -52.7330 25.8463 19.1600 107.3266 -0.5428 12.9801 -6.1214 0.2872 -3.4463 -9.5239 0.0000 0.0000 0.0000 5.6530 12.9625 -65.2574 -30.5443 -17.0922 122.3469 -1.5025 -14.1907 -32.0492 -3.6663 11.7026 -34.6878 -10.9652 2.3244 17.8779 -0.4917 -0.1673 10.9685 5.6609 -1.2127 1.8649 5.6977 -4.1048 -29.8541 1.5973 -8.1506 11.7831 -1.5505 -3.3972 8.2450 -0.0000 0.0000 0.0000 -70.9125 -68.7848 55.0464 11.8298 -19.5489 -2.0450 -0.0000 -0.0000 42.8728 47.0796 23.3945 23.1216 -7.1250 0.0000 -0.0000 22.3594 61.0056 8.9745 -0.0000 0.0000 0.0000 60.1885 64.9397 -7.9723 -24.9153 36.1173 -8.2399 0.0000 0.0000 21.6048 -9.1662 0.0125 -0.0020 7.1250 -0.0000 -0.0000 13.6141 -29.8193 5.1739
0.00 0.00 0.00 158.8380 -6.8697 -122.0590 0.0000 0.0000 0.0000 1.4290 -2.5066 -70.9328 31.3659 16.5664 125.1840 -0.3143 13.7734 -15.2873 0.2841 -3.4280 -9.4728 0.0000 0.0000 0.0000 9.6219 11.0474 -62.1655 -29.5524 -17.6540 119.0258 -1.7646 -14.6049 -33.9459 -3.6631 11.6981 -34.6722 -12.6787 3.0766 17.1078 0.1686 0.6731 11.7530 7.1914 -1.0345 3.0292 4.7266 -5.6054 -30.0412 2.0399 -9.8549 11.7633 -1.5046 -4.1786 8.2949 -0.0000 -0.0000 0.0000 -71.6804 -70.8870 61.7918 13.1910 -21.5664 -2.5231 -0.0000 -0.0000 41.3869 35.2048 17.9201 12.2483 -7.1250 0.0000 -0.0000 7.3434 51.4263 1.1676 -0.0000 -0.0000 0.0000 55.0261 64.7071 -16.1247 -20.8050 31.6000 -5.9474 0.0000 0.0000 23.0543 -10.7770 0.9069 -0.1726 7.1250 -0.0000 -0.0000 12.2621 -28.9571 4.8949
0.00 0.00 0.00 157.5250 -10.6975 -124.4790 0.0000 0.0000 0.0000 1.4949 6.8162 -102.2687 35.6316 12.6352 141.9823 0.2836 13.5746 -22.3007 0.3254 -3.6664 -10.1400 0.0000 0.0000 0.0000 13.4183 9.7305 -55.5179 -27.6968 -18.5159 113.0535 -2.4170 -12.4469 -35.8895 -4.2667 12.5071 -37.5505 -11.0624 4.1495 15.1353 1.3402 2.3947 13.8758 7.3303 -0.4704 6.0576 3.1529 -6.9679 -30.6176 2.5784 -11.2098 12.4508 -1.3287 -4.7651 8.7173 0.0000 0.0000 0.0000 -74.5213 -70.6329 61.9494 20.1028 -30.7660 -5.5838 -0.0000 -0.0000 39.8358 31.3041 9.7814 5.8983 -7.1250 0.0000 -0.0000 3.8517 41.3566 -0.3467 0.0000 0.0000 0.0000 43.2390 62.6543 -29.3653 -16.2942 25.9179 -3.7736 0.0000 0.0000 25.2556 -12.7138 0.8804 -0.1986 7.1250 -0.0000 -0.0000 10.7754 -29.0014 4.2688
0.00 0.00 0.00 161.0960 -9.0995 -144.9580 0.0000 0.0000 0.0000 -1.0920 -23.9973 -121.4487 32.6530 15.6173 129.8251 -1.5099 21.4663 -12.3578 0.4598 -4.3496 -12.0623 0.0000 0.0000 0.0000 16.0150 -2.7940 -25.3454 -22.2562 -19.8775 96.6097 -2.7104 -11.4450 -36.7517 -4.3821 12.6522 -38.0801 -5.8044 9.4743 25.8881 4.5104 6.0202 21.2444 6.5416 0.3401 8.1013 -1.4129 -8.8605 -31.4428 2.1175 -11.9578 14.2440 -1.0271 -5.3192 9.6996 0.0000 -0.0000 0.0000 -68.9624 -63.6238 54.0248 33.4426 -43.6675 -13.7267 -0.0000 -0.0000 33.3800 29.0686 6.4543 3.5756 -7.1250 0.0000 -0.0000 1.9773 37.3482 -0.3725 0.0000 -0.0000 0.0000 26.8820 59.7304 -50.7236 -10.1374 16.9542 -1.5148 0.0000 0.0000 35.0874 -13.3802 1.0093 -0.2401 7.1250 -0.0000 -0.0000 10.2487 -28.8760 4.0849
0.00 0.00 0.00 170.6620 -0.8306 -147.3950 0.0000 0.0000 0.0000 -3.8642 -21.3101 -110.5384 29.0972 17.8872 117.5346 -2.7047 27.7170 -8.3436 0.2090 -2.9432 -8.1207 0.0000 0.0000 0.0000 17.1809 0.3580 -15.3035 -16.4214 -19.6902 79.4849 -1.0404 -15.6309 -30.4532 -4.5898 12.9064 -39.0192 -0.4596 8.3721 32.2371 -0.0167 5.7007 17.9160 -1.3378 1.1568 2.9771 -2.0507 -6.1134 -37.0405 2.2286 -8.0452 20.2155 -0.4620 -3.3260 12.8661 0.0000 -0.0000 0.0000 -60.5247 -44.6253 39.7573 41.8136 -49.1084 -19.7995 -0.0000 -0.0000 29.7712 27.9703 8.5135 4.4952 -7.1250 0.0000 -0.0000 0.9487 39.5976 -0.1263 0.0000 -0.0000 0.0000 43.5412 66.1313 -52.6866 -6.7544 11.5144 -0.6818 0.0000 0.0000 58.1961 -11.6627 0.4273 -0.0882 7.1250 -0.0000 -0.0000 11.6359 -29.4454 4.4969
